<?xml version="1.0" encoding="iso-8859-1"?>
<!-- Uploaded to: SVG Repo, www.svgrepo.com, Generator: SVG Repo Mixer Tools -->
<svg version="1.1" id="Layer_1" xmlns="http://www.w3.org/2000/svg" xmlns:xlink="http://www.w3.org/1999/xlink" 
	 viewBox="0 0 460 460" xml:space="preserve">
<rect x="10.149" style="fill:#EDEEF0;" width="346.75" height="460"/>
<rect x="55.629" y="40.479" style="opacity:0.4;fill:#5B5B5F;enable-background:new    ;" width="138.712" height="10"/>
<rect x="55.629" y="86.609" style="opacity:0.4;fill:#5B5B5F;enable-background:new    ;" width="255.79" height="10"/>
<rect x="55.629" y="132.74" style="opacity:0.4;fill:#5B5B5F;enable-background:new    ;" width="255.79" height="10"/>
<rect x="55.629" y="178.87" style="opacity:0.4;fill:#5B5B5F;enable-background:new    ;" width="255.79" height="10"/>
<rect x="55.629" y="225" style="opacity:0.4;fill:#5B5B5F;enable-background:new    ;" width="255.79" height="10"/>
<rect x="55.629" y="271.13" style="opacity:0.4;fill:#5B5B5F;enable-background:new    ;" width="255.79" height="10"/>
<rect x="55.629" y="317.26" style="opacity:0.4;fill:#5B5B5F;enable-background:new    ;" width="255.79" height="10"/>
<rect x="55.629" y="363.391" style="opacity:0.4;fill:#5B5B5F;enable-background:new    ;" width="255.79" height="10"/>
<rect x="55.629" y="409.521" style="opacity:0.4;fill:#5B5B5F;enable-background:new    ;" width="255.79" height="10"/>
<circle style="fill:#90C5FF;" cx="284.05" cy="279.381" r="75.212"/>
<rect x="380.671" y="344.367" transform="matrix(-0.7071 0.7071 -0.7071 -0.7071 956.0737 389.4254)" style="fill:#59595A;" width="33.427" height="96.71"/>
<rect x="343.254" y="350.743" transform="matrix(-0.7071 0.7071 -0.7071 -0.7071 865.741 352.0067)" style="fill:#ABCB57;" width="33.427" height="9.122"/>
<rect x="418.088" y="425.578" transform="matrix(-0.7071 0.7071 -0.7071 -0.7071 1046.4071 426.8424)" style="fill:#ABCB57;" width="33.427" height="9.122"/>
<g>
	<g>
		<polygon style="opacity:0.2;fill:#FFFFFF;enable-background:new    ;" points="413.608,308.509 407.167,325.08 196.752,243.388 
			203.182,226.815 		"/>
	</g>
	<g>
		<polygon style="opacity:0.2;fill:#FFFFFF;enable-background:new    ;" points="433.666,284.79 427.221,301.366 216.805,219.674 
			223.227,203.109 		"/>
	</g>
</g>
<path style="fill:#59595A;" d="M367.923,279.381c0-22.403-8.724-43.466-24.566-59.308c-15.842-15.841-36.904-24.566-59.307-24.565
	c-22.403,0-43.466,8.724-59.307,24.565c-15.842,15.842-24.566,36.904-24.566,59.308c0,22.403,8.724,43.466,24.566,59.307
	c15.842,15.842,36.904,24.566,59.307,24.566c19.462,0,37.907-6.591,52.801-18.705l13.713,13.713l12.367-12.367l-13.713-13.713
	C361.332,317.288,367.923,298.843,367.923,279.381z M284.05,345.932c-17.776,0-34.489-6.922-47.058-19.492
	c-12.57-12.569-19.492-29.282-19.492-47.058c0-17.776,6.923-34.489,19.492-47.058c12.57-12.57,29.282-19.492,47.058-19.493
	c17.776,0,34.489,6.923,47.058,19.493c12.57,12.569,19.492,29.282,19.492,47.058s-6.923,34.489-19.492,47.058
	C318.538,339.009,301.826,345.932,284.05,345.932z"/>
<path style="opacity:0.4;fill:#5B5B5F;enable-background:new    ;" d="M367.923,279.381c0-22.403-8.724-43.466-24.566-59.307
	c-15.842-15.842-36.904-24.566-59.307-24.566s-43.466,8.724-59.307,24.566l12.249,12.249c12.57-12.57,29.282-19.492,47.058-19.492
	c17.777,0,34.489,6.923,47.058,19.492c12.57,12.57,19.492,29.282,19.492,47.058c0,17.777-6.923,34.489-19.492,47.058l11.356,11.356
	l0.893,0.893l13.391,13.391l3.225,3.225l78.06,78.06l11.818-11.818l-6.45-6.45l-68.385-68.385l-6.45-6.45l-5.635,5.635l-13.71-13.71
	C361.335,317.291,367.923,298.843,367.923,279.381z"/>
</svg>